<?xml version="1.0" standalone="no"?>
<!DOCTYPE svg PUBLIC "-//W3C//DTD SVG 20010904//EN"
 "http://www.w3.org/TR/2001/REC-SVG-20010904/DTD/svg10.dtd">
<svg version="1.0" xmlns="http://www.w3.org/2000/svg"
 width="214.000000pt" height="214.000000pt" viewBox="0 0 214.000000 214.000000"
 preserveAspectRatio="xMidYMid meet">
<metadata>
Created by potrace 1.11, written by Peter Selinger 2001-2013
</metadata>
<g transform="translate(0.000000,214.000000) scale(0.100000,-0.100000)"
fill="#000000" stroke="none">
<path d="M1005 1891 c-22 -11 -163 -73 -312 -140 -150 -66 -301 -133 -335
-149 -35 -16 -123 -55 -195 -87 -73 -32 -133 -61 -133 -65 0 -3 21 -16 48 -27
62 -28 496 -226 592 -270 41 -20 80 -36 85 -36 6 0 58 21 115 47 58 26 122 55
142 64 l37 17 1 333 c0 182 -1 332 -2 332 -2 -1 -21 -9 -43 -19z"/>
<path d="M1063 1578 l0 -330 96 -44 c53 -24 109 -51 124 -59 16 -8 35 -15 42
-15 7 0 15 -5 17 -11 3 -8 26 -1 68 19 121 56 242 112 246 112 2 0 50 22 106
48 57 27 121 57 143 66 22 10 57 27 78 37 21 10 42 19 48 19 5 0 21 7 35 16
24 17 24 17 -138 89 -210 93 -253 112 -308 137 -94 43 -408 182 -481 213 l-77
33 1 -330z"/>
<path d="M20 1094 l1 -339 202 -89 c111 -50 229 -102 262 -117 33 -15 76 -34
95 -42 19 -8 60 -26 90 -40 54 -25 343 -154 368 -164 10 -4 12 62 10 327 l-3
333 -170 78 c-93 43 -204 94 -245 113 -41 19 -106 49 -145 67 -38 17 -153 69
-255 116 -102 46 -191 87 -197 90 -10 4 -13 -66 -13 -333z"/>
<path d="M2030 1404 c-30 -14 -75 -35 -100 -46 -25 -11 -97 -44 -160 -73 -63
-29 -140 -64 -170 -78 -163 -74 -313 -143 -380 -174 -41 -20 -93 -43 -115 -53
l-40 -17 0 -331 c0 -183 1 -332 2 -332 1 0 26 11 55 24 29 13 136 61 238 106
102 46 201 90 220 98 19 9 37 16 40 17 7 3 67 29 238 106 84 38 170 77 192 85
34 14 40 21 41 48 2 91 -1 639 -4 642 -1 2 -27 -8 -57 -22z"/>
</g>
</svg>
